# xmcd CD database file
#
# Track frame offsets:
#	150
#	18462
#	39846
#	61279
#	66389
#	87713
#	114670
#	133890
#	153339
#	175704
#	197428
#
# Disc length: 2909 seconds
#
# Revision: 1
# Processed by: cddbd v1.5.2PL0 Copyright (c) Steve Scherf et al.
# Submitted via: CDex 1.70beta2
#
DISCID=940b5b0b
DTITLE=Rob Maletick - Back Home
DYEAR=2006
DGENRE=Jazz
TTITLE0=Backwards Talkin'
TTITLE1=Give it Back
TTITLE2=In My arms
TTITLE3=Introduction to my Heart
TTITLE4=Shape of My Heart
TTITLE5=Trafalgar Square
TTITLE6=Holcomb Rock Baptist Church
TTITLE7=If I Ain't Got You
TTITLE8=H Flat
TTITLE9=Just a Prayer Away
TTITLE10=Back Home
EXTD=YEAR: 2006
EXTT0=
EXTT1=
EXTT2=
EXTT3=
EXTT4=
EXTT5=
EXTT6=
EXTT7=
EXTT8=
EXTT9=
EXTT10=
PLAYORDER=
